<svg id="logo" xmlns="http://www.w3.org/2000/svg" xmlns:xlink="http://www.w3.org/1999/xlink" viewBox="0 0 35.1 19.53" shape-rendering="geometricPrecision" text-rendering="geometricPrecision" project-id="8c9a7495b807431cae13fea165852f0e" export-id="7d17f9591256466b9b71c4c4f30b04d8" cached="false"><g id="logo-u-clanker" transform="matrix(0.190928 0 0 0.190928 -2.637232 -12.010939)"><path id="logo-u-rectangle" d="M0,28.360261L-2,0h151.910279l-7,32.48539Q14.291028,28.772774,0,28.360261Z" transform="translate(47.746432 62.908216)" fill="#2aa2ff" stroke-width="0"/><rect id="logo-s-rect1" width="9.923497" height="68.27656" rx="4.96" ry="4.96" transform="matrix(0.800369 -0.599507 0.599507 0.800369 17.30905 110.548309)" stroke-width="0"/><rect id="logo-s-rect2" width="9.923497" height="68.27656" rx="4.96" ry="4.96" transform="matrix(0.800369 -0.599507 0.599507 0.800369 125.570694 110.548313)" stroke-width="0"/><rect id="logo-s-rect3" width="26.010633" height="26.010633" rx="6" ry="6" transform="matrix(0.837348 0 0 0.837348 55.90023 65.260939)" stroke-width="0"/><rect id="logo-s-rect4" width="26.010633" height="26.010633" rx="6" ry="6" transform="matrix(0.837348 0 0 0.837348 164.755594 67.260936)" stroke-width="0"/><rect id="logo-s-rect5" width="15.541845" height="70.091706" rx="7.77" ry="7.77" transform="matrix(0.638502 0.76962 -0.76962 0.638502 175.645569 67.260936)" fill="#2aa2ff" stroke-width="0"/><rect id="logo-s-rect6" width="15.541845" height="70.091706" rx="7.77" ry="7.77" transform="matrix(0.638502 0.76962 -0.76962 0.638502 67.756683 65.260936)" fill="#2aa2ff" stroke-width="0"/></g></svg>
